HIERARCHY
ROOT Hips
{
  OFFSET -187.679 86.5976 -156.378
  CHANNELS 6 Xposition Yposition Zposition Zrotation Xrotation Yrotation
  JOINT LeftUpLeg
  {
    OFFSET 8.64259 1.95398 -2.38835
    CHANNELS 3 Zrotation Xrotation Yrotation
    JOINT LeftLeg
    {
      OFFSET 43.7702 0 0
      CHANNELS 3 Zrotation Xrotation Yrotation
      JOINT LeftFoot
      {
        OFFSET 40.6238 0 0
        CHANNELS 3 Zrotation Xrotation Yrotation
        JOINT LeftToeBase
        {
          OFFSET 12.7242 0 0
          CHANNELS 3 Zrotation Xrotation Yrotation
          End Site
          {
            OFFSET 0 0 0
          }
        }
      }
    }
  }
  JOINT RightUpLeg
  {
    OFFSET -8.2249 1.95398 -2.59336
    CHANNELS 3 Zrotation Xrotation Yrotation
    JOINT RightLeg
    {
      OFFSET 43.5653 0 0
      CHANNELS 3 Zrotation Xrotation Yrotation
      JOINT RightFoot
      {
        OFFSET 40.6238 0 0
        CHANNELS 3 Zrotation Xrotation Yrotation
        JOINT RightToeBase
        {
          OFFSET 12.7242 0 0
          CHANNELS 3 Zrotation Xrotation Yrotation
          End Site
          {
            OFFSET 0 0 0
          }
        }
      }
    }
  }
  JOINT Spine
  {
    OFFSET 0.165834 0.87714 6.61349
    CHANNELS 3 Zrotation Xrotation Yrotation
    JOINT Spine1
    {
      OFFSET 7.38963 1.71661e-005 0
      CHANNELS 3 Zrotation Xrotation Yrotation
      JOINT Spine2
      {
        OFFSET 11.9445 1.14441e-005 0
        CHANNELS 3 Zrotation Xrotation Yrotation
        JOINT Spine3
        {
          OFFSET 14.7254 4.19617e-005 0
          CHANNELS 3 Zrotation Xrotation Yrotation
          JOINT Spine4
          {
            OFFSET 10.9679 0 0
            CHANNELS 3 Zrotation Xrotation Yrotation
            JOINT RightShoulder
            {
              OFFSET 2.46616 -1.6653 3.69651
              CHANNELS 3 Zrotation Xrotation Yrotation
              JOINT RightArm
              {
                OFFSET 13.0012 0 0
                CHANNELS 3 Zrotation Xrotation Yrotation
                JOINT RightForeArm
                {
                  OFFSET 28.7848 1.52588e-005 0
                  CHANNELS 3 Zrotation Xrotation Yrotation
                  JOINT RightHand
                  {
                    OFFSET 26.5688 1.52588e-005 0
                    CHANNELS 3 Zrotation Xrotation Yrotation
                    End Site
                    {
                      OFFSET 0 0 0
                    }
                  }
                }
              }
            }
            JOINT LeftShoulder
            {
              OFFSET 2.38034 -1.29275 -3.7523
              CHANNELS 3 Zrotation Xrotation Yrotation
              JOINT LeftArm
              {
                OFFSET 16.3182 6.10352e-005 0
                CHANNELS 3 Zrotation Xrotation Yrotation
                JOINT LeftForeArm
                {
                  OFFSET 27.0901 0 0
                  CHANNELS 3 Zrotation Xrotation Yrotation
                  JOINT LeftHand
                  {
                    OFFSET 24.5451 1.52588e-005 0
                    CHANNELS 3 Zrotation Xrotation Yrotation
                    End Site
                    {
                      OFFSET 0 0 0
                    }
                  }
                }
              }
            }
            JOINT Neck
            {
              OFFSET 5.0226 -0.0266342 0
              CHANNELS 3 Zrotation Xrotation Yrotation
              JOINT Head
              {
                OFFSET 6.69363 2.86102e-005 0
                CHANNELS 3 Zrotation Xrotation Yrotation
                End Site
                {
                  OFFSET 0 0 0
                }
              }
            }
          }
        }
      }
    }
  }
}
MOTION
Frames:	11
Frame Time:	0.0416667
307.618 86.6904 322.307 -78.481 7.24365 -89.6542 -145.818 -1.80577 119.491 7.02824 39.9358 -11.2919 -12.5664 -42.1573 -14.6256 155.412 21.3185 -29.302 151.185 41.44 97.9903 -70.3393 11.6842 16.6395 90.7409 -7.80212 -0.198895 20.8459 -3.4211 5.94742 -5.98334 15.0347 -93.9218 -3.9127 -13.19 -8.90186 -15.5425 -13.5675 -8.30857 -38.1723 -9.92457 -12.4447 -18.1597 -9.92458 -12.4447 47.3003 -67.8893 -148.202 -33.0735 -18.5115 -24.6553 -17.1745 -1.72395 -31.2809 -6.91055 -0.435834 2.52978 9.13853 -84.2723 -172.306 0.548019 -36.8182 -110.92 46.224 1.40297 -83.5415 3.46617 0.47504 6.79504 137.98 -14.9695 -14.7652 -44.1393 27.6945 -1.78459 
300.57 85.4324 316.178 -75.442 21.3193 -91.6012 -169.559 -0.593852 101.594 -61.0131 61.3246 30.1466 33.4508 -7.07848 -11.701 26.5514 -47.0572 84.1071 158.175 38.2899 103.818 -71.2751 17.9773 11.3049 94.6935 -8.55374 5.84098 24.7358 -2.5408 5.87787 -4.54759 14.0702 -93.1223 -1.66247 -10.1589 -6.78069 -13.3091 -10.4467 -6.32514 -35.903 -7.66055 -9.51617 -15.8903 -7.66055 -9.51617 70.063 -64.4285 -123.086 -22.1713 -10.9041 -34.402 -54.5417 -39.4949 -53.5622 -3.51196 -10.5163 65.3673 -24.6471 -76.6435 156.929 17.2421 -24.321 -84.3917 50.5363 -1.91444 -80.681 4.74545 0.63703 7.31285 130.984 -5.32461 -11.8682 -36.4567 24.0519 -5.73324 
294.744 82.3242 311.032 -70.1997 37.1656 -95.53 -173.417 10.7712 99.8189 -77.8133 38.5673 12.1343 64.1335 3.75155 12.2529 -1.54357 -3.77119 -13.8048 165.794 36.956 107.047 -73.9794 19.1228 7.31778 102.32 -10.3184 9.81452 27.9542 -2.07386 6.55419 -2.28372 12.4664 -92.2532 1.79313 -5.42408 -4.52661 -9.87376 -5.61786 -4.28348 -32.3947 -3.81557 -5.94506 -12.3821 -3.81557 -5.94507 88.5948 -56.109 -101.26 -2.07794 -3.10396 -47.7943 137.417 30.2891 -134.834 118.897 6.16516 -10.0684 -51.5702 -69.604 129.334 19.1919 2.72143 -56.7528 70.4021 -9.40965 -82.7014 0.20182 0.165322 7.42913 115.91 7.48569 -4.46108 -29.707 17.0642 -10.1288 
286.922 81.8539 304.213 -65.7441 44.8462 -101.32 -175.03 34.8195 94.9291 -97.944 17.7408 7.50341 65.8564 4.56753 8.05185 27.6491 3.96142 -13.3875 171.103 29.1264 103.445 -68.9714 14.27 4.2797 106.216 -12.7015 8.75767 30.7 -1.88816 8.13992 -0.554109 10.3872 -91.5368 6.06177 -1.75317 -2.95737 -5.61102 -1.88157 -2.87744 -28.1228 -0.783839 -3.34712 -8.11015 -0.783842 -3.34712 94.6518 -42.9627 -94.5909 20.3455 3.02921 -56.1103 -14.2801 4.16358 -46.9418 4.23511 -21.1705 23.872 -73.4297 -53.8124 103.768 -6.6065 30.6707 -10.5946 72.9927 -19.1522 -84.6831 -3.47334 -0.146556 4.30495 86.599 13.5881 6.05075 -19.5654 7.97196 -9.27839 
278.156 82.163 295.679 -61.7535 46.7402 -108.553 179.207 57.9193 96.3073 -102.216 9.62325 6.56201 74.2958 8.09334 5.63148 26.9908 3.2289 -11.9592 173.232 18.9759 97.6005 -60.117 10.5961 2.53371 104.443 -14.0234 5.43818 36.8864 -0.265021 7.03543 1.13026 8.3311 -90.4534 10.2217 2.04492 -1.07465 -1.44817 1.99567 -1.16364 -23.9955 2.27332 -0.410129 -3.98281 2.27332 -0.410128 92.4608 -35.4414 -100.12 26.5724 17.6947 -53.9868 -7.65733 -17.8839 -42.3742 -10.9372 -3.1543 28.7435 -83.3342 -32.6494 86.7654 -44.8614 40.9403 43.1004 78.507 -32.3502 -81.409 2.6922 0.314661 4.86994 49.1431 3.2929 7.56526 -1.92672 -1.26266 -0.578114 
266.534 84.6978 283.411 -62.9583 37.8408 -111.201 167.961 72.2249 98.1633 -88.221 13.3089 6.44342 78.4864 9.61277 2.80695 26.6098 2.39605 -9.52687 173.023 5.37065 93.017 -42.4666 5.57538 2.88174 82.9628 -8.3441 -2.50062 44.592 0.852633 10.3742 1.71921 7.54955 -89.7158 11.8049 3.55555 0.246857 0.138793 3.56293 0.0899464 -22.4323 3.31696 1.30515 -2.41966 3.31696 1.30514 95.0433 -26.5571 -97.3276 33.1027 33.3385 -52.6056 28.1875 -23.7569 -21.2459 -30.1261 -6.86731 20.5394 -84.1151 -18.682 82.326 -60.7099 44.9245 62.7598 82.1742 -38.8704 -77.8114 5.05582 0.41581 3.54844 36.5603 -7.34565 3.67673 5.0304 -8.08121 6.82709 
250.246 89.5707 269.375 -69.8763 38.1299 -116.083 -174.198 64.5973 76.5194 -64.3962 12.1015 0.5752 80.9576 9.01847 -1.33357 21.1924 1.33545 -10.9013 170.446 -13.9585 82.3403 -24.2518 -6.61279 -2.46998 58.8477 -0.445945 -4.70373 28.1031 -2.07965 7.37688 2.62066 8.133 -88.319 10.5242 5.99065 2.77717 -1.13525 6.10704 2.5101 -23.7261 4.87931 4.45105 -3.71342 4.87934 4.45106 96.9385 -23.1268 -94.0884 32.8097 41.0482 -39.4114 56.6284 -29.4886 -13.2631 -48.8281 -10.3959 17.6901 -84.1804 -15.3825 81.2444 -49.8158 47.3948 54.471 80.1743 -41.0172 -81.6639 4.10987 0.245628 1.34319 34.5164 -14.9248 -1.05284 4.45391 -12.986 10.2013 
237.433 90.3341 256.011 -70.7553 35.33 -113.963 -170.524 59.8444 75.9119 -51.9817 20.7753 -3.70434 77.8218 8.75335 1.00036 20.5405 -1.24132 -4.87276 173.702 -12.2073 88.443 -39.965 -6.09664 -2.23793 59.9071 -1.31416 3.04321 18.7913 -4.08021 6.46659 2.62831 8.01357 -88.2758 10.7718 6.02901 2.87296 -0.887614 6.14955 2.60412 -23.4781 4.88725 4.55385 -3.46543 4.88722 4.55385 94.0994 -32.0962 -97.8217 21.2871 26.9971 -22.6309 34.8171 -31.5324 -41.2076 -35.1818 -9.28445 25.1014 -85.4752 -25.4946 80.8964 -30.0006 44.6483 29.9841 81.0591 -37.9094 -83.8178 1.41526 0.0479585 0.863682 32.8719 -17.3172 -4.35655 5.81363 -13.8402 10.0445 
224.068 89.9689 242.587 -78.0556 31.2909 -109.107 -172.222 45.6645 76.703 -52.7001 17.1733 -2.54277 67.9281 4.06054 3.4217 31.9247 3.87585 -9.64619 168.989 -3.37076 89.6116 -69.7421 4.52163 1.57756 61.9794 -2.16799 -0.613932 18.6466 -5.0287 8.78269 1.61169 8.3328 -88.3399 10.1501 3.9684 2.96183 -1.5178 4.09486 2.78424 -24.055 2.8955 4.01701 -4.04231 2.89552 4.017 89.9439 -42.8896 -102.509 22.7819 1.65659 -10.4327 -3.40704 -11.5454 -50.3443 -17.5182 -4.47465 24.3963 -89.8095 -39.4501 76.7258 -20.5147 40.6435 5.82538 83.4123 -29.7279 -80.5595 -10.9717 -0.191275 -2.79727 30.3826 -16.2572 -11.7067 6.21258 -9.91361 11.8117 
212.479 88.2856 230.351 -78.1856 30.6782 -111.415 -169.613 36.1799 77.6436 -60.5624 16.4104 -2.79549 82.4395 10.5163 -0.412665 32.0807 3.76324 -9.06916 168.374 20.5554 88.9099 -99.2066 18.5241 -2.25575 72.1472 -5.78757 -0.590268 20.3206 -4.28329 7.93683 0.495663 8.10687 -88.0327 10.6165 1.89177 3.73306 -1.05845 2.05408 3.64633 -23.5513 0.683579 4.12832 -3.53865 0.683586 4.12832 89.1462 -46.4195 -102.823 36.2379 -14.8741 7.89803 -22.8753 -3.76479 -43.3951 -2.74637 -0.365475 12.7988 -92.4801 -43.3917 73.4248 9.44672 53.1515 -41.3007 89.916 -21.6641 -66.3523 -41.9498 0.463721 -6.63534 28.0102 -12.1905 -12.2299 5.39467 -6.50267 7.13277 
199.095 87.3046 217.661 -82.5116 28.7604 -105.622 -172.803 19.6187 88.4299 -58.1638 17.3133 1.43308 90.3552 13.8146 -2.30555 42.0093 6.54319 -9.57897 173.799 40.5337 89.2625 -109.922 13.4849 -4.21608 76.9354 -6.83511 -2.74295 20.0766 -4.02318 7.05494 -1.28165 8.27401 -88.5684 10.3411 -1.89793 3.01141 -1.33242 -1.7636 3.09193 -23.8587 -2.71502 2.30232 -3.84604 -2.71501 2.30232 92.1614 -41.8638 -99.0702 45.8883 -14.1856 31.5548 -37.7467 -1.21998 -63.5705 -6.07894 0.4493 0.385601 -88.6581 -31.2255 76.5259 8.8464 15.1213 -59.1703 93.5462 -28.049 -77.0983 -11.5564 0.694396 -0.53354 26.902 -4.80199 -10.1114 6.5235 -0.524703 3.60785 
